<svg xmlns="http://www.w3.org/2000/svg" xmlns:xlink="http://www.w3.org/1999/xlink" width="500" zoomAndPan="magnify" viewBox="0 0 375 374.999991" height="500" preserveAspectRatio="xMidYMid meet" version="1.0"><defs><g/><clipPath id="56bd03dc26"><path d="M 18.246094 71.195312 L 162.773438 71.195312 L 162.773438 215.722656 L 18.246094 215.722656 Z M 18.246094 71.195312 " clip-rule="nonzero"/></clipPath><clipPath id="04b309e3be"><path d="M 90.511719 71.195312 C 50.597656 71.195312 18.246094 103.550781 18.246094 143.460938 C 18.246094 183.371094 50.597656 215.722656 90.511719 215.722656 C 130.421875 215.722656 162.773438 183.371094 162.773438 143.460938 C 162.773438 103.550781 130.421875 71.195312 90.511719 71.195312 Z M 90.511719 71.195312 " clip-rule="nonzero"/></clipPath><clipPath id="fddb49b7d0"><path d="M 40.667969 121.226562 L 97.644531 121.226562 L 97.644531 178.203125 L 40.667969 178.203125 Z M 40.667969 121.226562 " clip-rule="nonzero"/></clipPath><clipPath id="42daee3524"><path d="M 69.15625 121.226562 C 53.421875 121.226562 40.667969 133.980469 40.667969 149.714844 C 40.667969 165.449219 53.421875 178.203125 69.15625 178.203125 C 84.890625 178.203125 97.644531 165.449219 97.644531 149.714844 C 97.644531 133.980469 84.890625 121.226562 69.15625 121.226562 Z M 69.15625 121.226562 " clip-rule="nonzero"/></clipPath><clipPath id="e56c81b5da"><path d="M 59.769531 137.390625 L 67.777344 137.390625 L 67.777344 144.542969 L 59.769531 144.542969 Z M 59.769531 137.390625 " clip-rule="nonzero"/></clipPath><clipPath id="814b835b8b"><path d="M 69.035156 137.390625 L 77.042969 137.390625 L 77.042969 144.542969 L 69.035156 144.542969 Z M 69.035156 137.390625 " clip-rule="nonzero"/></clipPath><clipPath id="03eb02ff04"><path d="M 59.769531 145.640625 L 67.777344 145.640625 L 67.777344 152.789062 L 59.769531 152.789062 Z M 59.769531 145.640625 " clip-rule="nonzero"/></clipPath><clipPath id="469d9a840a"><path d="M 69.035156 145.640625 L 77.042969 145.640625 L 77.042969 152.789062 L 69.035156 152.789062 Z M 69.035156 145.640625 " clip-rule="nonzero"/></clipPath></defs><rect x="-37.5" width="450" fill="#ffffff" y="-37.499999" height="449.999989" fill-opacity="1"/><rect x="-37.5" width="450" fill="#ffffff" y="-37.499999" height="449.999989" fill-opacity="1"/><g clip-path="url(#56bd03dc26)"><g clip-path="url(#04b309e3be)"><path fill="#f1ca53" d="M 18.246094 71.195312 L 162.773438 71.195312 L 162.773438 215.722656 L 18.246094 215.722656 Z M 18.246094 71.195312 " fill-opacity="1" fill-rule="nonzero"/></g></g><g clip-path="url(#fddb49b7d0)"><g clip-path="url(#42daee3524)"><path fill="#000000" d="M 40.667969 121.226562 L 97.644531 121.226562 L 97.644531 178.203125 L 40.667969 178.203125 Z M 40.667969 121.226562 " fill-opacity="1" fill-rule="nonzero"/></g></g><g clip-path="url(#e56c81b5da)"><path fill="#ffffff" d="M 59.769531 137.390625 L 67.789062 137.390625 L 67.789062 144.542969 L 59.769531 144.542969 Z M 59.769531 137.390625 " fill-opacity="1" fill-rule="nonzero"/></g><g clip-path="url(#814b835b8b)"><path fill="#ffffff" d="M 69.035156 137.390625 L 77.054688 137.390625 L 77.054688 144.542969 L 69.035156 144.542969 Z M 69.035156 137.390625 " fill-opacity="1" fill-rule="nonzero"/></g><g clip-path="url(#03eb02ff04)"><path fill="#ffffff" d="M 59.769531 145.640625 L 67.789062 145.640625 L 67.789062 152.789062 L 59.769531 152.789062 Z M 59.769531 145.640625 " fill-opacity="1" fill-rule="nonzero"/></g><g clip-path="url(#469d9a840a)"><path fill="#ffffff" d="M 69.035156 145.640625 L 77.054688 145.640625 L 77.054688 152.789062 L 69.035156 152.789062 Z M 69.035156 145.640625 " fill-opacity="1" fill-rule="nonzero"/></g><g fill="#000000" fill-opacity="1"><g transform="translate(100.54228, 168.381712)"><g><path d="M 38.125 -18.4375 C 38.34375 -18.050781 38.410156 -17.632812 38.328125 -17.1875 C 38.242188 -16.75 38.007812 -16.421875 37.625 -16.203125 C 34.414062 -14.097656 30.757812 -11.644531 26.65625 -8.84375 C 22.5625 -6.050781 18.382812 -2.828125 14.125 0.828125 C 12.238281 12.128906 10.210938 21.832031 8.046875 29.9375 C 5.890625 38.050781 3.660156 44.753906 1.359375 50.046875 C -0.929688 55.335938 -3.179688 59.363281 -5.390625 62.125 C -7.609375 64.894531 -9.71875 66.554688 -11.71875 67.109375 C -12.320312 67.273438 -12.898438 67.359375 -13.453125 67.359375 C -15.222656 67.359375 -16.75 66.582031 -18.03125 65.03125 C -19.132812 63.59375 -19.90625 61.613281 -20.34375 59.09375 C -20.789062 56.570312 -20.875 53.765625 -20.59375 50.671875 C -20.320312 48.234375 -19.6875 45.144531 -18.6875 41.40625 C -17.6875 37.664062 -15.914062 33.5 -13.375 28.90625 C -10 22.8125 -6.175781 17.300781 -1.90625 12.375 C 2.351562 7.445312 6.695312 3.046875 11.125 -0.828125 C 11.519531 -3.097656 11.894531 -5.476562 12.25 -7.96875 C 12.613281 -10.46875 12.960938 -13.015625 13.296875 -15.609375 C 12.515625 -14.453125 11.707031 -13.273438 10.875 -12.078125 C 10.050781 -10.890625 9.222656 -9.742188 8.390625 -8.640625 C 7.554688 -7.585938 6.625 -6.601562 5.59375 -5.6875 C 4.570312 -4.769531 3.507812 -4.476562 2.40625 -4.8125 C 1.90625 -4.925781 1.421875 -5.242188 0.953125 -5.765625 C 0.484375 -6.296875 0.191406 -7.195312 0.078125 -8.46875 C -0.0234375 -9.851562 0.125 -11.640625 0.53125 -13.828125 C 0.945312 -16.015625 1.597656 -18.269531 2.484375 -20.59375 C 3.378906 -22.925781 4.488281 -25.046875 5.8125 -26.953125 C 7.144531 -28.859375 8.640625 -30.226562 10.296875 -31.0625 C 11.296875 -31.5625 12.5 -31.820312 13.90625 -31.84375 C 15.320312 -31.875 16.859375 -31.144531 18.515625 -29.65625 C 18.847656 -29.320312 19.03125 -28.945312 19.0625 -28.53125 C 19.09375 -28.113281 18.941406 -27.738281 18.609375 -27.40625 C 18.328125 -27.070312 17.960938 -26.890625 17.515625 -26.859375 C 17.078125 -26.835938 16.691406 -26.96875 16.359375 -27.25 C 14.367188 -29.070312 12.347656 -29.070312 10.296875 -27.25 C 9.023438 -26.082031 7.90625 -24.554688 6.9375 -22.671875 C 5.96875 -20.796875 5.175781 -18.859375 4.5625 -16.859375 C 3.957031 -14.867188 3.554688 -13.054688 3.359375 -11.421875 C 3.171875 -9.785156 3.1875 -8.664062 3.40625 -8.0625 C 3.570312 -8.164062 3.863281 -8.394531 4.28125 -8.75 C 4.695312 -9.113281 5.207031 -9.710938 5.8125 -10.546875 C 6.914062 -11.984375 8.035156 -13.53125 9.171875 -15.1875 C 10.304688 -16.851562 11.34375 -18.40625 12.28125 -19.84375 C 13.226562 -21.289062 13.925781 -22.425781 14.375 -23.25 C 14.8125 -23.976562 15.445312 -24.203125 16.28125 -23.921875 C 17.113281 -23.703125 17.472656 -23.148438 17.359375 -22.265625 C 16.972656 -18.992188 16.570312 -15.832031 16.15625 -12.78125 C 15.738281 -9.738281 15.3125 -6.804688 14.875 -3.984375 C 18.75 -7.140625 22.5 -9.9375 26.125 -12.375 C 29.75 -14.8125 33.003906 -16.972656 35.890625 -18.859375 C 36.273438 -19.128906 36.671875 -19.207031 37.078125 -19.09375 C 37.492188 -18.988281 37.84375 -18.769531 38.125 -18.4375 Z M -12.625 64.046875 C -11.289062 63.648438 -9.710938 62.34375 -7.890625 60.125 C -6.066406 57.914062 -4.113281 54.515625 -2.03125 49.921875 C 0.0390625 45.328125 2.140625 39.289062 4.265625 31.8125 C 6.398438 24.332031 8.410156 15.164062 10.296875 4.3125 C 6.472656 7.800781 2.765625 11.71875 -0.828125 16.0625 C -4.429688 20.414062 -7.671875 25.222656 -10.546875 30.484375 C -13.429688 35.691406 -15.382812 40.523438 -16.40625 44.984375 C -17.425781 49.441406 -17.785156 53.234375 -17.484375 56.359375 C -17.179688 59.484375 -16.53125 61.710938 -15.53125 63.046875 C -14.695312 64.046875 -13.726562 64.378906 -12.625 64.046875 Z M -12.625 64.046875 "/></g></g></g><g fill="#000000" fill-opacity="1"><g transform="translate(128.94827, 168.381712)"><g><path d="M 34.796875 -18.4375 C 35.191406 -18.269531 35.457031 -17.976562 35.59375 -17.5625 C 35.726562 -17.144531 35.710938 -16.742188 35.546875 -16.359375 C 34.492188 -14.203125 33.34375 -12.039062 32.09375 -9.875 C 30.851562 -7.71875 29.554688 -5.738281 28.203125 -3.9375 C 26.847656 -2.144531 25.445312 -0.707031 24 0.375 C 22.5625 1.457031 21.125 2 19.6875 2 C 19.40625 2 19.097656 1.96875 18.765625 1.90625 C 15.054688 1.1875 12.757812 -3.796875 11.875 -13.046875 C 10.9375 -11.765625 9.84375 -10.332031 8.59375 -8.75 C 7.351562 -7.175781 6.039062 -5.613281 4.65625 -4.0625 C 4.425781 -3.84375 4.0625 -3.5 3.5625 -3.03125 C 3.070312 -2.5625 2.492188 -2.1875 1.828125 -1.90625 C 1.160156 -1.632812 0.492188 -1.664062 -0.171875 -2 C -1.492188 -2.488281 -2.128906 -3.925781 -2.078125 -6.3125 C -2.078125 -7.695312 -1.8125 -9.410156 -1.28125 -11.453125 C -0.757812 -13.503906 -0.015625 -15.566406 0.953125 -17.640625 C 1.921875 -19.722656 3.054688 -21.566406 4.359375 -23.171875 C 5.660156 -24.773438 7.113281 -25.851562 8.71875 -26.40625 C 9.71875 -26.800781 10.9375 -26.875 12.375 -26.625 C 13.8125 -26.375 15.304688 -25.332031 16.859375 -23.5 C 17.140625 -23.175781 17.265625 -22.789062 17.234375 -22.34375 C 17.203125 -21.894531 17.023438 -21.535156 16.703125 -21.265625 C 16.367188 -20.984375 15.976562 -20.859375 15.53125 -20.890625 C 15.09375 -20.921875 14.734375 -21.101562 14.453125 -21.4375 C 13.117188 -22.976562 11.96875 -23.707031 11 -23.625 C 10.03125 -23.539062 9.21875 -23.253906 8.5625 -22.765625 C 7.34375 -21.878906 6.234375 -20.601562 5.234375 -18.9375 C 4.234375 -17.28125 3.398438 -15.535156 2.734375 -13.703125 C 2.078125 -11.878906 1.609375 -10.175781 1.328125 -8.59375 C 1.046875 -7.019531 0.960938 -5.875 1.078125 -5.15625 C 1.242188 -5.257812 1.421875 -5.394531 1.609375 -5.5625 C 1.804688 -5.726562 2.019531 -5.953125 2.25 -6.234375 C 3.90625 -8.054688 5.425781 -9.867188 6.8125 -11.671875 C 8.195312 -13.472656 9.382812 -15.066406 10.375 -16.453125 C 10.65625 -16.835938 10.921875 -17.207031 11.171875 -17.5625 C 11.421875 -17.925781 11.65625 -18.242188 11.875 -18.515625 C 12.320312 -19.078125 12.90625 -19.242188 13.625 -19.015625 C 14.34375 -18.847656 14.726562 -18.378906 14.78125 -17.609375 C 14.945312 -14.003906 15.238281 -11.109375 15.65625 -8.921875 C 16.070312 -6.734375 16.53125 -5.097656 17.03125 -4.015625 C 17.53125 -2.941406 18 -2.210938 18.4375 -1.828125 C 18.882812 -1.441406 19.21875 -1.25 19.4375 -1.25 C 20.488281 -1.019531 22.175781 -2.097656 24.5 -4.484375 C 26.820312 -6.867188 29.535156 -11.269531 32.640625 -17.6875 C 32.859375 -18.132812 33.175781 -18.425781 33.59375 -18.5625 C 34.007812 -18.695312 34.410156 -18.65625 34.796875 -18.4375 Z M 34.796875 -18.4375 "/></g></g></g><g fill="#000000" fill-opacity="1"><g transform="translate(162.195068, 168.843937)"><g><path d="M 1.984375 -4.46875 L 6.28125 -4.46875 L 6.28125 -38 L 2.546875 -38 L 2.546875 -42.484375 L 10.984375 -42.484375 L 10.984375 -4.46875 L 14.5625 -4.46875 L 14.5625 0 L 1.984375 0 Z M 1.984375 -4.46875 "/></g></g></g><g fill="#000000" fill-opacity="1"><g transform="translate(174.484491, 168.843937)"><g><path d="M 1.984375 -10.59375 C 1.984375 -12.0625 2.273438 -13.472656 2.859375 -14.828125 C 3.441406 -16.191406 4.242188 -17.382812 5.265625 -18.40625 C 6.285156 -19.425781 7.492188 -20.238281 8.890625 -20.84375 C 10.285156 -21.445312 11.78125 -21.75 13.375 -21.75 C 14.382812 -21.75 15.320312 -21.597656 16.1875 -21.296875 C 17.0625 -20.992188 17.816406 -20.660156 18.453125 -20.296875 C 19.097656 -19.941406 19.609375 -19.59375 19.984375 -19.25 C 20.367188 -18.914062 20.5625 -18.691406 20.5625 -18.578125 C 20.5625 -18.992188 20.597656 -19.425781 20.671875 -19.875 C 20.742188 -20.332031 20.78125 -20.785156 20.78125 -21.234375 L 24.703125 -21.234375 L 24.703125 -4.46875 L 29 -4.46875 L 29 0 L 20.5625 0 L 20.5625 -2.265625 C 20.519531 -2.148438 20.328125 -1.941406 19.984375 -1.640625 C 19.648438 -1.335938 19.171875 -1.023438 18.546875 -0.703125 C 17.921875 -0.390625 17.175781 -0.109375 16.3125 0.140625 C 15.445312 0.390625 14.46875 0.515625 13.375 0.515625 C 11.78125 0.515625 10.285156 0.222656 8.890625 -0.359375 C 7.492188 -0.953125 6.285156 -1.757812 5.265625 -2.78125 C 4.242188 -3.800781 3.441406 -4.976562 2.859375 -6.3125 C 2.273438 -7.65625 1.984375 -9.082031 1.984375 -10.59375 Z M 6.734375 -10.65625 C 6.734375 -8.800781 7.347656 -7.238281 8.578125 -5.96875 C 9.804688 -4.707031 11.40625 -4.078125 13.375 -4.078125 C 15.332031 -4.078125 16.925781 -4.707031 18.15625 -5.96875 C 19.382812 -7.238281 20 -8.800781 20 -10.65625 C 20 -12.539062 19.382812 -14.09375 18.15625 -15.3125 C 16.925781 -16.539062 15.332031 -17.15625 13.375 -17.15625 C 11.40625 -17.15625 9.804688 -16.539062 8.578125 -15.3125 C 7.347656 -14.09375 6.734375 -12.539062 6.734375 -10.65625 Z M 6.734375 -10.65625 "/></g></g></g><g fill="#000000" fill-opacity="1"><g transform="translate(201.216254, 168.843937)"><g><path d="M 18.296875 -4.46875 L 22.65625 -4.46875 L 22.65625 -13.25 C 22.582031 -14.269531 22.210938 -15.148438 21.546875 -15.890625 C 20.890625 -16.628906 19.84375 -17.035156 18.40625 -17.109375 C 17.425781 -17.109375 16.492188 -16.9375 15.609375 -16.59375 C 14.722656 -16.257812 13.9375 -15.789062 13.25 -15.1875 C 12.570312 -14.582031 12.023438 -13.863281 11.609375 -13.03125 C 11.191406 -12.195312 10.984375 -11.289062 10.984375 -10.3125 L 10.984375 -4.46875 L 14.5625 -4.46875 L 14.5625 0 L 1.984375 0 L 1.984375 -4.46875 L 6.28125 -4.46875 L 6.28125 -16.765625 L 2.546875 -16.765625 L 2.546875 -21.234375 L 10.421875 -21.234375 L 10.421875 -20.734375 C 10.492188 -19.828125 10.554688 -19.003906 10.609375 -18.265625 C 10.671875 -17.523438 10.738281 -16.703125 10.8125 -15.796875 C 11.570312 -17.609375 12.789062 -19.050781 14.46875 -20.125 C 16.15625 -21.207031 18.015625 -21.75 20.046875 -21.75 C 22.273438 -21.75 24.03125 -21.160156 25.3125 -19.984375 C 26.601562 -18.816406 27.285156 -17.289062 27.359375 -15.40625 L 27.359375 -4.46875 L 30.875 -4.46875 L 30.875 0 L 18.296875 0 Z M 18.296875 -4.46875 "/></g></g></g><g fill="#000000" fill-opacity="1"><g transform="translate(229.817035, 168.843937)"><g><path d="M 20.5625 -1.140625 L 20.5625 -2.265625 C 20.519531 -2.148438 20.328125 -1.941406 19.984375 -1.640625 C 19.648438 -1.335938 19.171875 -1.023438 18.546875 -0.703125 C 17.921875 -0.390625 17.175781 -0.109375 16.3125 0.140625 C 15.445312 0.390625 14.46875 0.515625 13.375 0.515625 C 11.78125 0.515625 10.285156 0.222656 8.890625 -0.359375 C 7.492188 -0.953125 6.285156 -1.757812 5.265625 -2.78125 C 4.242188 -3.800781 3.441406 -4.988281 2.859375 -6.34375 C 2.273438 -7.707031 1.984375 -9.144531 1.984375 -10.65625 C 1.984375 -12.164062 2.273438 -13.585938 2.859375 -14.921875 C 3.441406 -16.265625 4.242188 -17.445312 5.265625 -18.46875 C 6.285156 -19.488281 7.492188 -20.289062 8.890625 -20.875 C 10.285156 -21.457031 11.78125 -21.75 13.375 -21.75 C 14.3125 -21.75 15.203125 -21.613281 16.046875 -21.34375 C 16.898438 -21.082031 17.648438 -20.78125 18.296875 -20.4375 C 18.941406 -20.101562 19.460938 -19.765625 19.859375 -19.421875 C 20.253906 -19.085938 20.488281 -18.863281 20.5625 -18.75 C 20.488281 -19.050781 20.394531 -19.34375 20.28125 -19.625 C 20.164062 -19.90625 20.070312 -20.195312 20 -20.5 L 20 -38 L 16.25 -38 L 16.25 -42.484375 L 24.703125 -42.484375 L 24.703125 -4.46875 L 29 -4.46875 L 29 0 L 20.5625 0 Z M 6.734375 -10.65625 C 6.734375 -8.800781 7.347656 -7.238281 8.578125 -5.96875 C 9.804688 -4.707031 11.40625 -4.078125 13.375 -4.078125 C 15.332031 -4.078125 16.925781 -4.707031 18.15625 -5.96875 C 19.382812 -7.238281 20 -8.800781 20 -10.65625 C 20 -12.539062 19.382812 -14.09375 18.15625 -15.3125 C 16.925781 -16.539062 15.332031 -17.15625 13.375 -17.15625 C 11.40625 -17.15625 9.804688 -16.539062 8.578125 -15.3125 C 7.347656 -14.09375 6.734375 -12.539062 6.734375 -10.65625 Z M 6.734375 -10.65625 "/></g></g></g><g fill="#000000" fill-opacity="1"><g transform="translate(256.548795, 168.843937)"><g><path d="M 1.984375 -4.46875 L 6.28125 -4.46875 L 6.28125 -38 L 2.546875 -38 L 2.546875 -42.484375 L 10.984375 -42.484375 L 10.984375 -4.46875 L 14.5625 -4.46875 L 14.5625 0 L 1.984375 0 Z M 1.984375 -4.46875 "/></g></g></g><g fill="#000000" fill-opacity="1"><g transform="translate(268.838216, 168.843937)"><g><path d="M 1.984375 -10.65625 C 1.984375 -12.164062 2.273438 -13.597656 2.859375 -14.953125 C 3.441406 -16.316406 4.242188 -17.5 5.265625 -18.5 C 6.285156 -19.5 7.484375 -20.289062 8.859375 -20.875 C 10.242188 -21.457031 11.726562 -21.75 13.3125 -21.75 C 14.894531 -21.75 16.382812 -21.457031 17.78125 -20.875 C 19.175781 -20.289062 20.382812 -19.5 21.40625 -18.5 C 22.425781 -17.5 23.226562 -16.316406 23.8125 -14.953125 C 24.40625 -13.597656 24.703125 -12.164062 24.703125 -10.65625 C 24.703125 -9.101562 24.40625 -7.65625 23.8125 -6.3125 C 23.226562 -4.976562 22.425781 -3.800781 21.40625 -2.78125 C 20.382812 -1.757812 19.175781 -0.953125 17.78125 -0.359375 C 16.382812 0.222656 14.894531 0.515625 13.3125 0.515625 C 11.726562 0.515625 10.242188 0.222656 8.859375 -0.359375 C 7.484375 -0.953125 6.285156 -1.757812 5.265625 -2.78125 C 4.242188 -3.800781 3.441406 -4.976562 2.859375 -6.3125 C 2.273438 -7.65625 1.984375 -9.101562 1.984375 -10.65625 Z M 6.6875 -10.59375 C 6.6875 -9.6875 6.851562 -8.835938 7.1875 -8.046875 C 7.53125 -7.253906 7.992188 -6.5625 8.578125 -5.96875 C 9.160156 -5.382812 9.847656 -4.921875 10.640625 -4.578125 C 11.441406 -4.242188 12.296875 -4.078125 13.203125 -4.078125 C 14.109375 -4.078125 14.957031 -4.242188 15.75 -4.578125 C 16.539062 -4.921875 17.238281 -5.382812 17.84375 -5.96875 C 18.445312 -6.5625 18.914062 -7.253906 19.25 -8.046875 C 19.59375 -8.835938 19.765625 -9.6875 19.765625 -10.59375 C 19.765625 -11.5 19.59375 -12.347656 19.25 -13.140625 C 18.914062 -13.929688 18.445312 -14.628906 17.84375 -15.234375 C 17.238281 -15.835938 16.539062 -16.304688 15.75 -16.640625 C 14.957031 -16.984375 14.109375 -17.15625 13.203125 -17.15625 C 12.296875 -17.15625 11.441406 -16.984375 10.640625 -16.640625 C 9.847656 -16.304688 9.160156 -15.835938 8.578125 -15.234375 C 7.992188 -14.628906 7.53125 -13.929688 7.1875 -13.140625 C 6.851562 -12.347656 6.6875 -11.5 6.6875 -10.59375 Z M 6.6875 -10.59375 "/></g></g></g><g fill="#000000" fill-opacity="1"><g transform="translate(291.265601, 168.843937)"><g><path d="M 1.984375 -4.46875 L 6.28125 -4.46875 L 6.28125 -16.765625 L 2.546875 -16.765625 L 2.546875 -21.234375 L 10.421875 -21.234375 L 10.421875 -20.734375 C 10.492188 -19.828125 10.554688 -19.003906 10.609375 -18.265625 C 10.671875 -17.523438 10.738281 -16.703125 10.8125 -15.796875 C 11.269531 -16.742188 11.847656 -17.582031 12.546875 -18.3125 C 13.242188 -19.050781 13.976562 -19.675781 14.75 -20.1875 C 15.53125 -20.695312 16.285156 -21.082031 17.015625 -21.34375 C 17.753906 -21.613281 18.40625 -21.75 18.96875 -21.75 L 18.640625 -17.109375 C 16.335938 -17.109375 14.484375 -16.460938 13.078125 -15.171875 C 11.679688 -13.890625 10.984375 -12.269531 10.984375 -10.3125 L 10.984375 -4.46875 L 14.5625 -4.46875 L 14.5625 0 L 1.984375 0 Z M 1.984375 -4.46875 "/></g></g></g><g fill="#000000" fill-opacity="1"><g transform="translate(307.972681, 168.843937)"><g><path d="M 20.5625 -1.140625 L 20.5625 -2.265625 C 20.519531 -2.148438 20.328125 -1.941406 19.984375 -1.640625 C 19.648438 -1.335938 19.171875 -1.023438 18.546875 -0.703125 C 17.921875 -0.390625 17.175781 -0.109375 16.3125 0.140625 C 15.445312 0.390625 14.46875 0.515625 13.375 0.515625 C 11.78125 0.515625 10.285156 0.222656 8.890625 -0.359375 C 7.492188 -0.953125 6.285156 -1.757812 5.265625 -2.78125 C 4.242188 -3.800781 3.441406 -4.988281 2.859375 -6.34375 C 2.273438 -7.707031 1.984375 -9.144531 1.984375 -10.65625 C 1.984375 -12.164062 2.273438 -13.585938 2.859375 -14.921875 C 3.441406 -16.265625 4.242188 -17.445312 5.265625 -18.46875 C 6.285156 -19.488281 7.492188 -20.289062 8.890625 -20.875 C 10.285156 -21.457031 11.78125 -21.75 13.375 -21.75 C 14.3125 -21.75 15.203125 -21.613281 16.046875 -21.34375 C 16.898438 -21.082031 17.648438 -20.78125 18.296875 -20.4375 C 18.941406 -20.101562 19.460938 -19.765625 19.859375 -19.421875 C 20.253906 -19.085938 20.488281 -18.863281 20.5625 -18.75 C 20.488281 -19.050781 20.394531 -19.34375 20.28125 -19.625 C 20.164062 -19.90625 20.070312 -20.195312 20 -20.5 L 20 -38 L 16.25 -38 L 16.25 -42.484375 L 24.703125 -42.484375 L 24.703125 -4.46875 L 29 -4.46875 L 29 0 L 20.5625 0 Z M 6.734375 -10.65625 C 6.734375 -8.800781 7.347656 -7.238281 8.578125 -5.96875 C 9.804688 -4.707031 11.40625 -4.078125 13.375 -4.078125 C 15.332031 -4.078125 16.925781 -4.707031 18.15625 -5.96875 C 19.382812 -7.238281 20 -8.800781 20 -10.65625 C 20 -12.539062 19.382812 -14.09375 18.15625 -15.3125 C 16.925781 -16.539062 15.332031 -17.15625 13.375 -17.15625 C 11.40625 -17.15625 9.804688 -16.539062 8.578125 -15.3125 C 7.347656 -14.09375 6.734375 -12.539062 6.734375 -10.65625 Z M 6.734375 -10.65625 "/></g></g></g></svg>